<mxfile host="app.diagrams.net" modified="2023-07-12T09:52:41.697Z" agent="Mozilla/5.0 (Windows NT 10.0; Win64; x64) AppleWebKit/537.36 (KHTML, like Gecko) Chrome/114.0.0.0 Safari/537.36" etag="Qo0B_x-KpFbzdXz_0JpX" version="21.6.2" type="device">
  <diagram name="페이지-1" id="Dtqa8Nk4vweeRr1o5PZ7">
    <mxGraphModel dx="1434" dy="699" grid="1" gridSize="10" guides="1" tooltips="1" connect="1" arrows="1" fold="1" page="1" pageScale="1" pageWidth="827" pageHeight="1169" math="0" shadow="0">
      <root>
        <mxCell id="0" />
        <mxCell id="1" parent="0" />
        <mxCell id="zMYsZ2smEPR20cj2PESS-1" value="학과" style="whiteSpace=wrap;html=1;align=center;" parent="1" vertex="1">
          <mxGeometry x="370" y="160" width="100" height="40" as="geometry" />
        </mxCell>
        <mxCell id="zMYsZ2smEPR20cj2PESS-2" value="교사" style="whiteSpace=wrap;html=1;align=center;" parent="1" vertex="1">
          <mxGeometry x="20" y="160" width="100" height="40" as="geometry" />
        </mxCell>
        <mxCell id="zMYsZ2smEPR20cj2PESS-4" value="학생 강의" style="whiteSpace=wrap;html=1;align=center;" parent="1" vertex="1">
          <mxGeometry x="500" y="400" width="100" height="40" as="geometry" />
        </mxCell>
        <mxCell id="zMYsZ2smEPR20cj2PESS-5" value="과목" style="whiteSpace=wrap;html=1;align=center;" parent="1" vertex="1">
          <mxGeometry x="180" y="400" width="100" height="40" as="geometry" />
        </mxCell>
        <mxCell id="zMYsZ2smEPR20cj2PESS-7" value="학생" style="whiteSpace=wrap;html=1;align=center;" parent="1" vertex="1">
          <mxGeometry x="650" y="160" width="100" height="40" as="geometry" />
        </mxCell>
        <mxCell id="zMYsZ2smEPR20cj2PESS-12" value="수강" style="shape=rhombus;perimeter=rhombusPerimeter;whiteSpace=wrap;html=1;align=center;" parent="1" vertex="1">
          <mxGeometry x="340" y="400" width="100" height="40" as="geometry" />
        </mxCell>
        <mxCell id="zMYsZ2smEPR20cj2PESS-13" value="강의" style="shape=rhombus;perimeter=rhombusPerimeter;whiteSpace=wrap;html=1;align=center;" parent="1" vertex="1">
          <mxGeometry x="90" y="270" width="100" height="40" as="geometry" />
        </mxCell>
        <mxCell id="zMYsZ2smEPR20cj2PESS-14" value="강의" style="shape=rhombus;perimeter=rhombusPerimeter;whiteSpace=wrap;html=1;align=center;" parent="1" vertex="1">
          <mxGeometry x="590" y="280" width="100" height="40" as="geometry" />
        </mxCell>
        <mxCell id="zMYsZ2smEPR20cj2PESS-15" value="소속" style="shape=rhombus;perimeter=rhombusPerimeter;whiteSpace=wrap;html=1;align=center;" parent="1" vertex="1">
          <mxGeometry x="510" y="160" width="100" height="40" as="geometry" />
        </mxCell>
        <mxCell id="zMYsZ2smEPR20cj2PESS-16" value="소속" style="shape=rhombus;perimeter=rhombusPerimeter;whiteSpace=wrap;html=1;align=center;" parent="1" vertex="1">
          <mxGeometry x="200" y="160" width="100" height="40" as="geometry" />
        </mxCell>
        <mxCell id="zMYsZ2smEPR20cj2PESS-17" value="" style="endArrow=none;html=1;rounded=0;entryX=0;entryY=0.5;entryDx=0;entryDy=0;exitX=1;exitY=0.5;exitDx=0;exitDy=0;" parent="1" source="zMYsZ2smEPR20cj2PESS-16" target="zMYsZ2smEPR20cj2PESS-1" edge="1">
          <mxGeometry relative="1" as="geometry">
            <mxPoint x="270" y="250" as="sourcePoint" />
            <mxPoint x="430" y="250" as="targetPoint" />
          </mxGeometry>
        </mxCell>
        <mxCell id="zMYsZ2smEPR20cj2PESS-18" value="1" style="resizable=0;html=1;whiteSpace=wrap;align=right;verticalAlign=bottom;" parent="zMYsZ2smEPR20cj2PESS-17" connectable="0" vertex="1">
          <mxGeometry x="1" relative="1" as="geometry" />
        </mxCell>
        <mxCell id="zMYsZ2smEPR20cj2PESS-19" value="" style="endArrow=none;html=1;rounded=0;entryX=1;entryY=0.5;entryDx=0;entryDy=0;exitX=0;exitY=0.5;exitDx=0;exitDy=0;" parent="1" source="zMYsZ2smEPR20cj2PESS-16" target="zMYsZ2smEPR20cj2PESS-2" edge="1">
          <mxGeometry relative="1" as="geometry">
            <mxPoint x="310" y="290" as="sourcePoint" />
            <mxPoint x="470" y="290" as="targetPoint" />
          </mxGeometry>
        </mxCell>
        <mxCell id="zMYsZ2smEPR20cj2PESS-20" value="N" style="resizable=0;html=1;whiteSpace=wrap;align=right;verticalAlign=bottom;" parent="zMYsZ2smEPR20cj2PESS-19" connectable="0" vertex="1">
          <mxGeometry x="1" relative="1" as="geometry" />
        </mxCell>
        <mxCell id="zMYsZ2smEPR20cj2PESS-21" value="&lt;u&gt;교사코드&lt;/u&gt;" style="ellipse;whiteSpace=wrap;html=1;align=center;" parent="1" vertex="1">
          <mxGeometry x="10" y="30" width="100" height="40" as="geometry" />
        </mxCell>
        <mxCell id="zMYsZ2smEPR20cj2PESS-22" value="교사이름" style="ellipse;whiteSpace=wrap;html=1;align=center;" parent="1" vertex="1">
          <mxGeometry x="70" y="70" width="100" height="40" as="geometry" />
        </mxCell>
        <mxCell id="zMYsZ2smEPR20cj2PESS-24" value="&lt;u&gt;과목코드&lt;/u&gt;" style="ellipse;whiteSpace=wrap;html=1;align=center;" parent="1" vertex="1">
          <mxGeometry y="440" width="100" height="40" as="geometry" />
        </mxCell>
        <mxCell id="zMYsZ2smEPR20cj2PESS-25" value="과목이름" style="ellipse;whiteSpace=wrap;html=1;align=center;" parent="1" vertex="1">
          <mxGeometry x="40" y="480" width="100" height="40" as="geometry" />
        </mxCell>
        <mxCell id="zMYsZ2smEPR20cj2PESS-27" value="종료일" style="ellipse;whiteSpace=wrap;html=1;align=center;" parent="1" vertex="1">
          <mxGeometry x="180" y="500" width="100" height="40" as="geometry" />
        </mxCell>
        <mxCell id="zMYsZ2smEPR20cj2PESS-28" value="시작일" style="ellipse;whiteSpace=wrap;html=1;align=center;" parent="1" vertex="1">
          <mxGeometry x="10" y="400" width="100" height="40" as="geometry" />
        </mxCell>
        <mxCell id="zMYsZ2smEPR20cj2PESS-29" value="번호" style="ellipse;whiteSpace=wrap;html=1;align=center;" parent="1" vertex="1">
          <mxGeometry x="450" y="480" width="100" height="40" as="geometry" />
        </mxCell>
        <mxCell id="zMYsZ2smEPR20cj2PESS-30" value="학생코드" style="ellipse;whiteSpace=wrap;html=1;align=center;" parent="1" vertex="1">
          <mxGeometry x="560" y="480" width="100" height="40" as="geometry" />
        </mxCell>
        <mxCell id="zMYsZ2smEPR20cj2PESS-31" value="강의코드" style="ellipse;whiteSpace=wrap;html=1;align=center;" parent="1" vertex="1">
          <mxGeometry x="660" y="460" width="100" height="40" as="geometry" />
        </mxCell>
        <mxCell id="zMYsZ2smEPR20cj2PESS-32" value="&lt;u&gt;학과코드&lt;/u&gt;" style="ellipse;whiteSpace=wrap;html=1;align=center;" parent="1" vertex="1">
          <mxGeometry x="314" y="80" width="100" height="40" as="geometry" />
        </mxCell>
        <mxCell id="zMYsZ2smEPR20cj2PESS-33" value="학과이름" style="ellipse;whiteSpace=wrap;html=1;align=center;" parent="1" vertex="1">
          <mxGeometry x="414" y="80" width="100" height="40" as="geometry" />
        </mxCell>
        <mxCell id="zMYsZ2smEPR20cj2PESS-34" value="&lt;u&gt;학생코드&lt;/u&gt;" style="ellipse;whiteSpace=wrap;html=1;align=center;" parent="1" vertex="1">
          <mxGeometry x="540" y="30" width="100" height="40" as="geometry" />
        </mxCell>
        <mxCell id="zMYsZ2smEPR20cj2PESS-35" value="학생이름" style="ellipse;whiteSpace=wrap;html=1;align=center;" parent="1" vertex="1">
          <mxGeometry x="600" y="70" width="100" height="40" as="geometry" />
        </mxCell>
        <mxCell id="zMYsZ2smEPR20cj2PESS-36" value="성적" style="ellipse;whiteSpace=wrap;html=1;align=center;" parent="1" vertex="1">
          <mxGeometry x="650" y="30" width="100" height="40" as="geometry" />
        </mxCell>
        <mxCell id="zMYsZ2smEPR20cj2PESS-37" value="출석" style="ellipse;whiteSpace=wrap;html=1;align=center;" parent="1" vertex="1">
          <mxGeometry x="690" y="220" width="100" height="40" as="geometry" />
        </mxCell>
        <mxCell id="zMYsZ2smEPR20cj2PESS-40" value="" style="endArrow=none;html=1;rounded=0;exitX=0.75;exitY=0;exitDx=0;exitDy=0;entryX=0.5;entryY=1;entryDx=0;entryDy=0;" parent="1" source="zMYsZ2smEPR20cj2PESS-2" target="zMYsZ2smEPR20cj2PESS-22" edge="1">
          <mxGeometry relative="1" as="geometry">
            <mxPoint x="360" y="290" as="sourcePoint" />
            <mxPoint x="520" y="290" as="targetPoint" />
          </mxGeometry>
        </mxCell>
        <mxCell id="zMYsZ2smEPR20cj2PESS-41" value="" style="endArrow=none;html=1;rounded=0;exitX=0.372;exitY=0.074;exitDx=0;exitDy=0;exitPerimeter=0;entryX=0.425;entryY=1.065;entryDx=0;entryDy=0;entryPerimeter=0;" parent="1" edge="1">
          <mxGeometry relative="1" as="geometry">
            <mxPoint x="52.34999999999993" y="160.36000000000004" as="sourcePoint" />
            <mxPoint x="47.65" y="70.00000000000014" as="targetPoint" />
          </mxGeometry>
        </mxCell>
        <mxCell id="zMYsZ2smEPR20cj2PESS-42" value="" style="endArrow=none;html=1;rounded=0;exitX=0;exitY=0;exitDx=0;exitDy=0;entryX=1;entryY=0.5;entryDx=0;entryDy=0;" parent="1" source="zMYsZ2smEPR20cj2PESS-5" target="zMYsZ2smEPR20cj2PESS-28" edge="1">
          <mxGeometry relative="1" as="geometry">
            <mxPoint x="360" y="290" as="sourcePoint" />
            <mxPoint x="520" y="290" as="targetPoint" />
          </mxGeometry>
        </mxCell>
        <mxCell id="zMYsZ2smEPR20cj2PESS-43" value="" style="endArrow=none;html=1;rounded=0;exitX=0;exitY=0.75;exitDx=0;exitDy=0;" parent="1" source="zMYsZ2smEPR20cj2PESS-5" target="zMYsZ2smEPR20cj2PESS-24" edge="1">
          <mxGeometry relative="1" as="geometry">
            <mxPoint x="360" y="290" as="sourcePoint" />
            <mxPoint x="520" y="290" as="targetPoint" />
          </mxGeometry>
        </mxCell>
        <mxCell id="zMYsZ2smEPR20cj2PESS-44" value="" style="endArrow=none;html=1;rounded=0;" parent="1" source="zMYsZ2smEPR20cj2PESS-5" target="zMYsZ2smEPR20cj2PESS-25" edge="1">
          <mxGeometry relative="1" as="geometry">
            <mxPoint x="360" y="290" as="sourcePoint" />
            <mxPoint x="520" y="290" as="targetPoint" />
          </mxGeometry>
        </mxCell>
        <mxCell id="zMYsZ2smEPR20cj2PESS-46" value="" style="endArrow=none;html=1;rounded=0;" parent="1" source="zMYsZ2smEPR20cj2PESS-5" target="zMYsZ2smEPR20cj2PESS-27" edge="1">
          <mxGeometry relative="1" as="geometry">
            <mxPoint x="360" y="290" as="sourcePoint" />
            <mxPoint x="520" y="290" as="targetPoint" />
          </mxGeometry>
        </mxCell>
        <mxCell id="zMYsZ2smEPR20cj2PESS-47" value="" style="endArrow=none;html=1;rounded=0;" parent="1" source="zMYsZ2smEPR20cj2PESS-29" target="zMYsZ2smEPR20cj2PESS-4" edge="1">
          <mxGeometry relative="1" as="geometry">
            <mxPoint x="360" y="290" as="sourcePoint" />
            <mxPoint x="520" y="290" as="targetPoint" />
          </mxGeometry>
        </mxCell>
        <mxCell id="zMYsZ2smEPR20cj2PESS-48" value="" style="endArrow=none;html=1;rounded=0;" parent="1" source="zMYsZ2smEPR20cj2PESS-30" target="zMYsZ2smEPR20cj2PESS-4" edge="1">
          <mxGeometry relative="1" as="geometry">
            <mxPoint x="360" y="290" as="sourcePoint" />
            <mxPoint x="520" y="290" as="targetPoint" />
          </mxGeometry>
        </mxCell>
        <mxCell id="zMYsZ2smEPR20cj2PESS-49" value="" style="endArrow=none;html=1;rounded=0;" parent="1" source="zMYsZ2smEPR20cj2PESS-31" target="zMYsZ2smEPR20cj2PESS-4" edge="1">
          <mxGeometry relative="1" as="geometry">
            <mxPoint x="360" y="290" as="sourcePoint" />
            <mxPoint x="520" y="290" as="targetPoint" />
          </mxGeometry>
        </mxCell>
        <mxCell id="zMYsZ2smEPR20cj2PESS-50" value="" style="endArrow=none;html=1;rounded=0;exitX=0;exitY=1;exitDx=0;exitDy=0;" parent="1" source="zMYsZ2smEPR20cj2PESS-34" target="zMYsZ2smEPR20cj2PESS-7" edge="1">
          <mxGeometry relative="1" as="geometry">
            <mxPoint x="360" y="290" as="sourcePoint" />
            <mxPoint x="520" y="290" as="targetPoint" />
          </mxGeometry>
        </mxCell>
        <mxCell id="zMYsZ2smEPR20cj2PESS-51" value="" style="endArrow=none;html=1;rounded=0;" parent="1" source="zMYsZ2smEPR20cj2PESS-35" target="zMYsZ2smEPR20cj2PESS-7" edge="1">
          <mxGeometry relative="1" as="geometry">
            <mxPoint x="360" y="290" as="sourcePoint" />
            <mxPoint x="520" y="290" as="targetPoint" />
          </mxGeometry>
        </mxCell>
        <mxCell id="zMYsZ2smEPR20cj2PESS-52" value="" style="endArrow=none;html=1;rounded=0;exitX=0.752;exitY=0.894;exitDx=0;exitDy=0;exitPerimeter=0;" parent="1" source="zMYsZ2smEPR20cj2PESS-36" target="zMYsZ2smEPR20cj2PESS-7" edge="1">
          <mxGeometry relative="1" as="geometry">
            <mxPoint x="360" y="290" as="sourcePoint" />
            <mxPoint x="520" y="290" as="targetPoint" />
          </mxGeometry>
        </mxCell>
        <mxCell id="zMYsZ2smEPR20cj2PESS-54" value="" style="endArrow=none;html=1;rounded=0;" parent="1" source="zMYsZ2smEPR20cj2PESS-37" target="zMYsZ2smEPR20cj2PESS-7" edge="1">
          <mxGeometry relative="1" as="geometry">
            <mxPoint x="360" y="290" as="sourcePoint" />
            <mxPoint x="520" y="290" as="targetPoint" />
          </mxGeometry>
        </mxCell>
        <mxCell id="zMYsZ2smEPR20cj2PESS-55" value="" style="endArrow=none;html=1;rounded=0;" parent="1" source="zMYsZ2smEPR20cj2PESS-1" target="zMYsZ2smEPR20cj2PESS-32" edge="1">
          <mxGeometry relative="1" as="geometry">
            <mxPoint x="360" y="290" as="sourcePoint" />
            <mxPoint x="520" y="290" as="targetPoint" />
          </mxGeometry>
        </mxCell>
        <mxCell id="zMYsZ2smEPR20cj2PESS-56" value="" style="endArrow=none;html=1;rounded=0;" parent="1" source="zMYsZ2smEPR20cj2PESS-1" target="zMYsZ2smEPR20cj2PESS-33" edge="1">
          <mxGeometry relative="1" as="geometry">
            <mxPoint x="360" y="290" as="sourcePoint" />
            <mxPoint x="520" y="290" as="targetPoint" />
          </mxGeometry>
        </mxCell>
        <mxCell id="zMYsZ2smEPR20cj2PESS-58" value="" style="endArrow=none;html=1;rounded=0;" parent="1" source="zMYsZ2smEPR20cj2PESS-13" target="zMYsZ2smEPR20cj2PESS-2" edge="1">
          <mxGeometry relative="1" as="geometry">
            <mxPoint x="360" y="290" as="sourcePoint" />
            <mxPoint x="520" y="290" as="targetPoint" />
          </mxGeometry>
        </mxCell>
        <mxCell id="zMYsZ2smEPR20cj2PESS-59" value="1" style="resizable=0;html=1;whiteSpace=wrap;align=right;verticalAlign=bottom;" parent="zMYsZ2smEPR20cj2PESS-58" connectable="0" vertex="1">
          <mxGeometry x="1" relative="1" as="geometry" />
        </mxCell>
        <mxCell id="zMYsZ2smEPR20cj2PESS-60" value="" style="endArrow=none;html=1;rounded=0;" parent="1" source="zMYsZ2smEPR20cj2PESS-13" target="zMYsZ2smEPR20cj2PESS-5" edge="1">
          <mxGeometry relative="1" as="geometry">
            <mxPoint x="360" y="290" as="sourcePoint" />
            <mxPoint x="520" y="290" as="targetPoint" />
          </mxGeometry>
        </mxCell>
        <mxCell id="zMYsZ2smEPR20cj2PESS-61" value="N" style="resizable=0;html=1;whiteSpace=wrap;align=right;verticalAlign=bottom;" parent="zMYsZ2smEPR20cj2PESS-60" connectable="0" vertex="1">
          <mxGeometry x="1" relative="1" as="geometry" />
        </mxCell>
        <mxCell id="zMYsZ2smEPR20cj2PESS-62" value="" style="endArrow=none;html=1;rounded=0;" parent="1" source="zMYsZ2smEPR20cj2PESS-12" target="zMYsZ2smEPR20cj2PESS-4" edge="1">
          <mxGeometry relative="1" as="geometry">
            <mxPoint x="360" y="290" as="sourcePoint" />
            <mxPoint x="520" y="290" as="targetPoint" />
          </mxGeometry>
        </mxCell>
        <mxCell id="zMYsZ2smEPR20cj2PESS-63" value="N" style="resizable=0;html=1;whiteSpace=wrap;align=right;verticalAlign=bottom;" parent="zMYsZ2smEPR20cj2PESS-62" connectable="0" vertex="1">
          <mxGeometry x="1" relative="1" as="geometry" />
        </mxCell>
        <mxCell id="zMYsZ2smEPR20cj2PESS-65" value="" style="endArrow=none;html=1;rounded=0;exitX=0;exitY=0.5;exitDx=0;exitDy=0;" parent="1" source="zMYsZ2smEPR20cj2PESS-12" target="zMYsZ2smEPR20cj2PESS-5" edge="1">
          <mxGeometry relative="1" as="geometry">
            <mxPoint x="360" y="290" as="sourcePoint" />
            <mxPoint x="520" y="290" as="targetPoint" />
          </mxGeometry>
        </mxCell>
        <mxCell id="zMYsZ2smEPR20cj2PESS-66" value="M" style="resizable=0;html=1;whiteSpace=wrap;align=right;verticalAlign=bottom;" parent="zMYsZ2smEPR20cj2PESS-65" connectable="0" vertex="1">
          <mxGeometry x="1" relative="1" as="geometry" />
        </mxCell>
        <mxCell id="zMYsZ2smEPR20cj2PESS-67" value="" style="endArrow=none;html=1;rounded=0;" parent="1" source="zMYsZ2smEPR20cj2PESS-14" target="zMYsZ2smEPR20cj2PESS-7" edge="1">
          <mxGeometry relative="1" as="geometry">
            <mxPoint x="541.67" y="220" as="sourcePoint" />
            <mxPoint x="500.0033333333332" y="303.3333333333335" as="targetPoint" />
          </mxGeometry>
        </mxCell>
        <mxCell id="zMYsZ2smEPR20cj2PESS-68" value="1" style="resizable=0;html=1;whiteSpace=wrap;align=right;verticalAlign=bottom;" parent="zMYsZ2smEPR20cj2PESS-67" connectable="0" vertex="1">
          <mxGeometry x="1" relative="1" as="geometry" />
        </mxCell>
        <mxCell id="zMYsZ2smEPR20cj2PESS-69" value="" style="endArrow=none;html=1;rounded=0;" parent="1" source="zMYsZ2smEPR20cj2PESS-14" target="zMYsZ2smEPR20cj2PESS-4" edge="1">
          <mxGeometry relative="1" as="geometry">
            <mxPoint x="360" y="290" as="sourcePoint" />
            <mxPoint x="520" y="290" as="targetPoint" />
          </mxGeometry>
        </mxCell>
        <mxCell id="zMYsZ2smEPR20cj2PESS-70" value="N" style="resizable=0;html=1;whiteSpace=wrap;align=right;verticalAlign=bottom;" parent="zMYsZ2smEPR20cj2PESS-69" connectable="0" vertex="1">
          <mxGeometry x="1" relative="1" as="geometry" />
        </mxCell>
        <mxCell id="zMYsZ2smEPR20cj2PESS-71" value="" style="endArrow=none;html=1;rounded=0;" parent="1" source="zMYsZ2smEPR20cj2PESS-15" target="zMYsZ2smEPR20cj2PESS-1" edge="1">
          <mxGeometry relative="1" as="geometry">
            <mxPoint x="360" y="290" as="sourcePoint" />
            <mxPoint x="520" y="290" as="targetPoint" />
          </mxGeometry>
        </mxCell>
        <mxCell id="zMYsZ2smEPR20cj2PESS-72" value="1" style="resizable=0;html=1;whiteSpace=wrap;align=right;verticalAlign=bottom;" parent="zMYsZ2smEPR20cj2PESS-71" connectable="0" vertex="1">
          <mxGeometry x="1" relative="1" as="geometry" />
        </mxCell>
        <mxCell id="zMYsZ2smEPR20cj2PESS-73" value="" style="endArrow=none;html=1;rounded=0;" parent="1" source="zMYsZ2smEPR20cj2PESS-15" target="zMYsZ2smEPR20cj2PESS-7" edge="1">
          <mxGeometry relative="1" as="geometry">
            <mxPoint x="360" y="290" as="sourcePoint" />
            <mxPoint x="520" y="290" as="targetPoint" />
          </mxGeometry>
        </mxCell>
        <mxCell id="zMYsZ2smEPR20cj2PESS-74" value="N" style="resizable=0;html=1;whiteSpace=wrap;align=right;verticalAlign=bottom;" parent="zMYsZ2smEPR20cj2PESS-73" connectable="0" vertex="1">
          <mxGeometry x="1" relative="1" as="geometry" />
        </mxCell>
        <mxCell id="30SiUzpotjR4iBvdVWAZ-1" value="좌석" style="ellipse;whiteSpace=wrap;html=1;align=center;" parent="1" vertex="1">
          <mxGeometry x="727" y="90" width="100" height="40" as="geometry" />
        </mxCell>
        <mxCell id="30SiUzpotjR4iBvdVWAZ-2" value="" style="endArrow=none;html=1;rounded=0;" parent="1" source="30SiUzpotjR4iBvdVWAZ-1" target="zMYsZ2smEPR20cj2PESS-7" edge="1">
          <mxGeometry relative="1" as="geometry">
            <mxPoint x="960" y="300" as="sourcePoint" />
            <mxPoint x="1120" y="300" as="targetPoint" />
          </mxGeometry>
        </mxCell>
      </root>
    </mxGraphModel>
  </diagram>
</mxfile>
